<svg width="40" height="40" fill="#242424" viewBox="0 0 24 24" xmlns="http://www.w3.org/2000/svg">
  <path d="M2.4 12.48a4.8 4.8 0 0 1 8.958-2.4H19.2a.6.6 0 0 1 .425.175l1.8 1.8a.6.6 0 0 1 0 .85l-1.8 1.8a.6.6 0 0 1-.85 0L18 13.927l-.775.776a.6.6 0 0 1-.85 0l-.775-.776-.775.776a.6.6 0 0 1-.85 0l-.775-.776-.775.776a.6.6 0 0 1-.425.176h-.642a4.8 4.8 0 0 1-8.958-2.4Zm4.8-3.6a3.6 3.6 0 1 0 3.255 5.142.6.6 0 0 1 .541-.342h.756l1.024-1.025a.6.6 0 0 1 .85 0l.774.776.776-.776a.6.6 0 0 1 .85 0l.774.776.776-.776a.6.6 0 0 1 .85 0l.774.776.952-.951-1.2-1.2h-7.956a.6.6 0 0 1-.541-.342A3.6 3.6 0 0 0 7.2 8.88Z"></path>
  <path d="M7.2 12.48a1.2 1.2 0 1 1-2.4 0 1.2 1.2 0 0 1 2.4 0Z"></path>
</svg>